<?xml version="1.0" encoding="iso-8859-1"?>
<!-- Uploaded to: SVG Repo, www.svgrepo.com, Generator: SVG Repo Mixer Tools -->
<svg height="100px" width="100px" version="1.1" id="Layer_1" xmlns="http://www.w3.org/2000/svg" xmlns:xlink="http://www.w3.org/1999/xlink" 
	 viewBox="0 0 512.009 512.009" xml:space="preserve">
<g>
	<g>
		<path style="fill:#D1D4D1;" d="M105.935,512c-4.873,0-8.828-3.955-8.828-8.828V361.931c0-4.873,3.955-8.828,8.828-8.828
			s8.828,3.955,8.828,8.828v141.241C114.763,508.045,110.808,512,105.935,512"/>
		<path style="fill:#D1D4D1;" d="M406.073,512c-4.873,0-8.828-3.955-8.828-8.828V361.931c0-4.873,3.955-8.828,8.828-8.828
			c4.873,0,8.828,3.955,8.828,8.828v141.241C414.901,508.045,410.946,512,406.073,512"/>
		<path style="fill:#D1D4D1;" d="M256.004,512.009c-4.873,0-8.828-3.955-8.828-8.828V326.621c0-4.873,3.955-8.828,8.828-8.828
			s8.828,3.955,8.828,8.828v176.561C264.832,508.054,260.877,512.009,256.004,512.009"/>
	</g>
	<path style="fill:#F0C419;" d="M105.98,308.966l33.439,40.166c4.228,5.085,0.618,12.8-6.003,12.8H78.49
		c-6.63,0-10.249-7.724-6.003-12.818L105.98,308.966z"/>
	<path style="fill:#4FBA6F;" d="M406.125,308.966l33.439,40.166c4.228,5.085,0.618,12.8-6.003,12.8h-54.925
		c-6.63,0-10.249-7.724-6.003-12.818L406.125,308.966z"/>
	<path style="fill:#F29C1F;" d="M150.073,141.241c0-29.21,6.656-56.346,18.044-78.866c-17.479-16.949-38.921-27.065-62.182-27.065
		c-58.5,0-105.931,63.232-105.931,141.241s47.431,141.241,105.931,141.241c36.599,0,68.855-24.753,87.887-62.376
		C167.349,229.738,150.073,188.231,150.073,141.241"/>
	<path style="fill:#A4E869;" d="M406.073,35.31c-23.261,0-44.703,10.116-62.182,27.065c11.388,22.519,18.044,49.655,18.044,78.866
		c0,46.989-17.276,88.497-43.75,114.176c19.032,37.623,51.288,62.376,87.887,62.376c58.5,0,105.931-63.232,105.931-141.241
		S464.574,35.31,406.073,35.31"/>
	<path style="fill:#4FBA6F;" d="M359.888,122.354c-1.421,0-2.869-0.344-4.202-1.068c-4.281-2.33-5.879-7.689-3.549-11.97
		c0.847-1.562,1.165-2.074,1.889-3.266c13.921-22.74,32.75-35.425,52.047-35.425c4.873,0,8.828,3.946,8.828,8.828
		c0,4.873-3.955,8.828-8.828,8.828c-13.003,0-26.35,9.613-36.617,26.377c-0.927,1.51-1.165,1.907-1.801,3.081
		C366.059,120.685,363.022,122.354,359.888,122.354"/>
	<path style="fill:#F0C419;" d="M44.142,185.379c-4.873,0-8.828-3.955-8.828-8.828c0-57.423,32.344-105.931,70.621-105.931
		c4.873,0,8.828,3.955,8.828,8.828s-3.955,8.828-8.828,8.828c-27.719,0-52.966,42.081-52.966,88.276
		C52.97,181.425,49.015,185.379,44.142,185.379"/>
	<path style="fill:#C03A2B;" d="M256.056,273.655l33.439,40.166c4.228,5.085,0.618,12.8-6.003,12.8h-54.925
		c-6.63,0-10.249-7.724-6.003-12.818L256.056,273.655z"/>
	<path style="fill:#E64C3C;" d="M361.935,141.241c0,78.009-47.431,141.241-105.931,141.241s-105.931-63.232-105.931-141.241
		S197.504,0,256.004,0S361.935,63.232,361.935,141.241"/>
	<path style="fill:#C03A2B;" d="M194.211,150.069c-4.873,0-8.828-3.955-8.828-8.828c0-57.423,32.344-105.931,70.621-105.931
		c4.873,0,8.828,3.955,8.828,8.828s-3.955,8.828-8.828,8.828c-27.719,0-52.966,42.081-52.966,88.276
		C203.039,146.114,199.084,150.069,194.211,150.069"/>
</g>
</svg>